<?xml version="1.0" encoding="UTF-8"?>
<svg id="Layer_2" data-name="Layer 2" xmlns="http://www.w3.org/2000/svg" viewBox="0 0 73.75 181.71">
  <defs>
    <style>
      .cls-1 {
        fill: #1a1a1a;
        stroke-width: 0px;
      }
    </style>
  </defs>
  <g id="Layer_2-2" data-name="Layer 2">
    <path class="cls-1" d="M52.87,181.57H.75c-.41,0-.75-.34-.75-.75s.34-.75.75-.75h51.37V1.5H.75c-.41,0-.75-.34-.75-.75s.34-.75.75-.75h52.12c.41,0,.75.34.75.75v180.07c0,.41-.34.75-.75.75Z"/>
    <path class="cls-1" d="M52.87,62.5H19.75c-.41,0-.75-.34-.75-.75s.34-.75.75-.75h33.12c.41,0,.75.34.75.75s-.34.75-.75.75Z"/>
    <path class="cls-1" d="M52.87,121.5H19.75c-.41,0-.75-.34-.75-.75s.34-.75.75-.75h33.12c.41,0,.75.34.75.75s-.34.75-.75.75Z"/>
    <path class="cls-1" d="M62.73.74h10.66v2.69h-7.47v5.54h7.02v2.69h-7.02v9.06h-3.19V.74Z"/>
    <path class="cls-1" d="M62.73,161.74h10.8v2.69h-7.61v5.54h7.16v2.69h-7.16v6.38h7.83v2.69h-11.02v-19.97Z"/>
  </g>
</svg>