<?xml version="1.0" encoding="UTF-8"?>
<svg id="Layer_2" data-name="Layer 2" xmlns="http://www.w3.org/2000/svg" viewBox="0 0 62 62">
  <defs>
    <style>
      .cls-1 {
        fill: #999;
        opacity: .3;
      }

      .cls-1, .cls-2 {
        stroke-width: 0px;
      }

      .cls-2 {
        fill: #333;
      }
    </style>
  </defs>
  <g id="Layer_2-2" data-name="Layer 2">
    <circle class="cls-1" cx="31" cy="31" r="31"/>
    <path class="cls-2" d="M50.3,37.38c-.15-.53-.29-1.07-.42-1.6-1.09-4.57-.95-9.4-.81-14.07h.29c.83,0,1.37-.9.96-1.63-3.38-5.95-8.95-8.85-10.88-9.71-.33-.15-.69.09-.69.45v2.84c0,.18.09.34.25.42,1.16.62,6.03,3.39,7.81,7.33.08.18.25.29.44.29h.03c-.15,4.77-.29,9.7.86,14.49.13.55.28,1.1.43,1.65.55,2.05,1.07,3.99.74,5.89-.09.57-.26.96-.48,1.22-.27.32-.71.55-1.43.75-1.01.28-1.86.33-2.59.17-1.71-.4-2.05-2.03-2.5-3.44-.57-1.74-.52-3.67-.46-5.53l.15-5.6c.02-.59.04-1.26-.12-1.92-.34-1.53-1.56-2.88-3.17-3.49-.71-.27-1.47-.41-2.29-.42v-12.46c0-1.2-.97-2.17-2.17-2.17h-15.04c-1.2,0-2.17.97-2.17,2.17v35.03h-1.11c-.24,0-.44.2-.44.44v2.22c0,.24.2.44.44.44h21.6c.24,0,.44-.2.44-.44v-2.22c0-.24-.2-.44-.44-.44h-1.11v-20.79c.53,0,1.1.09,1.65.3,1.05.4,1.86,1.26,2.07,2.21.1.46.09.95.07,1.49l-.15,5.6c-.05,1.92-.12,4.1.55,6.14.78,2.38,1.76,4.15,3.81,4.62.4.09,1.6.14,2.04.14.68,0,.64-.11,1.42-.33.68-.19,1.65-.53,2.32-1.31.44-.52.73-1.2.88-2.08.4-2.29-.21-4.51-.78-6.66ZM34.1,24.11c0,.81-.66,1.46-1.46,1.46h-11.8c-.81,0-1.46-.66-1.46-1.46v-7.92c0-.81.66-1.46,1.46-1.46h11.8c.81,0,1.46.66,1.46,1.46v7.92Z"/>
  </g>
</svg>