<?xml version="1.0" encoding="UTF-8"?>
<svg id="Layer_2" data-name="Layer 2" xmlns="http://www.w3.org/2000/svg" viewBox="0 0 188.88 158">
  <defs>
    <style>
      .cls-1 {
        fill: #4d4d4d;
        font-family: HelveticaNeue-MediumCondObl, 'Helvetica Neue';
        font-size: 11.08px;
        font-style: oblique;
        font-weight: 500;
      }

      .cls-2 {
        fill: #454545;
      }

      .cls-2, .cls-3, .cls-4 {
        opacity: .3;
        stroke-width: 0px;
      }

      .cls-5, .cls-6 {
        fill: none;
        stroke: #b3b3b3;
        stroke-miterlimit: 10;
      }

      .cls-3 {
        fill: #bff5ff;
      }

      .cls-4 {
        fill: #999;
      }

      .cls-6 {
        stroke-width: .75px;
      }
    </style>
  </defs>
  <g id="Layer_2-2" data-name="Layer 2">
    <circle class="cls-5" cx="93.5" cy="94.38" r="20.5"/>
    <path class="cls-3" d="M188.5,94.38c0,24.2-9.14,46.26-24.16,62.92l-16.11-14.26c11.66-12.86,18.77-29.93,18.77-48.66,0-20.43-8.45-38.89-22.06-52.06l14.97-15.45c17.63,17.09,28.59,41.02,28.59,67.51Z"/>
    <path class="cls-2" d="M117.33,3.17l-5.22,20.86c-5.64-1.41-11.54-2.16-17.61-2.16-6.64,0-13.06.89-19.17,2.56l-5.68-20.73c7.91-2.17,16.25-3.33,24.85-3.33,7.87,0,15.52.97,22.83,2.8Z"/>
    <path class="cls-5" d="M40.77,143.03l-16.11,14.26C9.64,140.64.5,118.58.5,94.38c0-9.6,1.44-18.85,4.12-27.57l20.48,6.53c-2.02,6.66-3.1,13.72-3.1,21.04,0,18.73,7.11,35.8,18.77,48.66Z"/>
    <path class="cls-4" d="M75.33,24.43c-24,6.57-43.04,25.16-50.23,48.9l-20.48-6.53C14,36.16,38.63,12.17,69.65,3.7l5.68,20.73Z"/>
    <line class="cls-5" x1="117.33" y1="3.18" x2="117.33" y2="3.16"/>
    <line class="cls-5" x1="4.62" y1="66.81" x2="4.61" y2="66.81"/>
    <path class="cls-6" d="M188.5,94.38c0,24.2-9.14,46.26-24.16,62.92l-16.11-14.26c11.66-12.86,18.77-29.93,18.77-48.66,0-20.43-8.45-38.89-22.06-52.06l14.97-15.45c17.63,17.09,28.59,41.02,28.59,67.51Z"/>
    <path class="cls-6" d="M117.33,3.17l-5.22,20.86c-5.64-1.41-11.54-2.16-17.61-2.16-6.64,0-13.06.89-19.17,2.56l-5.68-20.73c7.91-2.17,16.25-3.33,24.85-3.33,7.87,0,15.52.97,22.83,2.8Z"/>
    <path class="cls-6" d="M40.77,143.03l-16.11,14.26C9.64,140.64.5,118.58.5,94.38c0-9.6,1.44-18.85,4.12-27.57l20.48,6.53c-2.02,6.66-3.1,13.72-3.1,21.04,0,18.73,7.11,35.8,18.77,48.66Z"/>
    <path class="cls-6" d="M75.33,24.43c-24,6.57-43.04,25.16-50.23,48.9l-20.48-6.53C14,36.16,38.63,12.17,69.65,3.7l5.68,20.73Z"/>
    <path class="cls-6" d="M159.91,26.86l-14.97,15.45c-9.01-8.73-20.27-15.15-32.83-18.28l5.22-20.86c16.29,4.05,30.9,12.37,42.58,23.69Z"/>
    <line class="cls-6" x1="117.33" y1="3.18" x2="117.33" y2="3.16"/>
    <line class="cls-6" x1="4.62" y1="66.81" x2="4.61" y2="66.81"/>
    <text class="cls-1" transform="translate(126.29 97.66)"><tspan x="0" y="0">KM/H</tspan></text>
  </g>
</svg>